<svg width="1440" height="1440" viewBox="0 0 1440 1440" fill="none" xmlns="http://www.w3.org/2000/svg">
<g clip-path="url(#clip0_139_2)">
<rect width="1440" height="1440" rx="16" fill="#A7DBE5"/>
<circle cx="720" cy="720" r="700" transform="rotate(180 720 720)" fill="#A7DBE5"/>
<circle cx="720" cy="720" r="700" fill="#A7DBE5"/>
<path d="M-460 720.993C-416.875 659.005 376.814 519.939 497.015 527.28C617.215 534.62 627.026 621.369 653 720.993C307.765 737.586 57.7353 736.408 -460 720.993Z" fill="#B7E0E8"/>
<path d="M771 547.738C796.883 463.783 1273.24 275.437 1345.38 285.379C1417.52 295.321 1423.41 412.811 1439 547.738C1231.8 570.211 1081.73 568.616 771 547.738Z" fill="#B7E0E8"/>
<path d="M-457 866.281C-417.633 774.803 306.885 569.58 416.609 580.413C526.334 591.246 535.29 719.263 559 866.281C243.853 890.767 15.6137 889.03 -457 866.281Z" fill="#C8E6EA"/>
<path d="M548 711.281C587.367 619.803 1311.88 414.58 1421.61 425.413C1531.33 436.246 1540.29 564.263 1564 711.281C1248.85 735.767 1020.61 734.03 548 711.281Z" fill="#C8E6EA"/>
<path d="M568 862.281C607.367 770.803 1331.88 565.58 1441.61 576.413C1551.33 587.246 1560.29 715.263 1584 862.281C1268.85 886.767 1040.61 885.03 568 862.281Z" fill="#C8E6EA"/>
<path d="M776.829 533.99L716.928 485.905L690.608 568.92L748.694 627.439L710.575 724.97L826.292 797.098L935.657 627.439L826.292 487.719L829.469 533.99L776.829 485.905V533.99Z" fill="#71BB50"/>
<path d="M995.103 598.406L935.657 627.439L826.292 797.098L896.177 891H1059.09L1002.36 841.1L1037.76 760.353L986.935 705.01L989.229 675.07L995.103 598.406Z" fill="#54AB43"/>
<path d="M710.575 797.098V761.034V724.97L551.748 891H716.928L748.694 829.759L710.575 797.098Z" fill="#54AA42"/>
<path d="M235 891H551.748L710.575 724.97L748.694 627.439L690.608 568.92L716.928 485.905L672.003 519.927V485.905L611.194 545.331L599.54 502.236L517.713 609.747L437.392 822.048L445.046 694.123L418.786 720.434L424.232 665.997L381.575 705.01L374.073 681.421L235 891Z" fill="#195E4B"/>
<path d="M517.713 609.747L451.913 579.353L445.046 694.123L437.392 822.048L517.713 609.747Z" fill="#71BB50"/>
<path d="M451.913 579.353L374.073 681.421L381.575 705.01L424.232 665.997L418.786 720.434L445.046 694.123L451.913 579.353Z" fill="#CBE1EC"/>
<path fill-rule="evenodd" clip-rule="evenodd" d="M599.54 502.236L716.928 348V433.737V485.905L672.003 519.927V485.905L611.194 545.331L599.54 502.236Z" fill="#CDE2EA"/>
<path d="M716.928 485.905L776.829 533.99V485.905L829.469 533.99L826.292 487.719L716.928 348V433.737V485.905Z" fill="#FCFDFC"/>
<path fill-rule="evenodd" clip-rule="evenodd" d="M1077.77 705.01L1222 891H1059.09L1002.36 841.1L1037.76 760.353L986.935 705.01L989.229 675.07L1077.77 705.01Z" fill="#9ED644"/>
<path d="M995.103 598.406L989.229 675.07L1077.77 705.01L995.103 598.406Z" fill="#C3E456"/>
<path d="M710.575 797.098L748.694 829.759L716.928 891H896.177L826.292 797.098L710.575 761.034V797.098Z" fill="#71BB50"/>
<path d="M826.292 797.098L710.575 724.97V761.034L826.292 797.098Z" fill="#C3E456"/>
<path d="M709 732L1420.7 725.86C1479.28 654.61 1388.7 544.775 1358.05 549.551C1327.4 554.326 1320.93 585.339 1319.23 601.699C1294.18 592.015 1267.47 613.297 1267.47 613.297C1245.67 467.988 1046.12 568.271 1129.21 660.369C1112.31 665.486 1105.38 686.975 1105.38 686.975C1078.51 654.353 1044.28 689.749 1046.12 694.479C1017.52 635.128 955.543 648.089 955.543 694.479L709 732Z" fill="#F8F8F8"/>
<path d="M721 620L9.29529 613.86C-49.2756 542.61 41.3049 432.775 71.9525 437.551C102.6 442.326 109.068 473.339 110.773 489.699C135.822 480.015 162.533 501.297 162.533 501.297C184.327 355.988 383.877 456.271 300.788 548.369C317.687 553.486 324.625 574.975 324.625 574.975C351.486 542.354 385.719 577.749 383.877 582.479C412.481 523.128 474.457 536.089 474.457 582.479L721 620Z" fill="#F8F8F8"/>
<g opacity="0.35">
<path d="M777.829 1180.95L717.928 1220L691.608 1152.58L749.694 1105.05L711.575 1025.84L827.292 967.263L936.657 1105.05L827.292 1218.53L830.469 1180.95L777.829 1220V1180.95Z" fill="#71BB50"/>
<path d="M996.103 1128.63L936.657 1105.05L827.292 967.263L897.177 891H1060.09L1003.36 931.526L1038.76 997.105L987.935 1042.05L990.229 1066.37L996.103 1128.63Z" fill="#54AB43"/>
<path d="M711.575 967.263V996.553V1025.84L552.748 891H717.928L749.694 940.737L711.575 967.263Z" fill="#54AA42"/>
<path d="M236 891H552.748L711.575 1025.84L749.694 1105.05L691.608 1152.58L717.928 1220L673.003 1192.37V1220L612.194 1171.74L600.54 1206.74L518.713 1119.42L438.392 947L446.046 1050.89L419.786 1029.53L425.232 1073.74L382.575 1042.05L375.073 1061.21L236 891Z" fill="#195E4B"/>
<path d="M518.713 1119.42L452.913 1144.11L446.046 1050.89L438.392 947L518.713 1119.42Z" fill="#71BB50"/>
<path d="M452.913 1144.11L375.073 1061.21L382.575 1042.05L425.232 1073.74L419.786 1029.53L446.046 1050.89L452.913 1144.11Z" fill="#CBE1EC"/>
<path fill-rule="evenodd" clip-rule="evenodd" d="M600.54 1206.74L717.928 1332V1262.37V1220L673.003 1192.37V1220L612.194 1171.74L600.54 1206.74Z" fill="#CDE2EA"/>
<path d="M717.928 1220L777.829 1180.95V1220L830.469 1180.95L827.292 1218.53L717.928 1332V1262.37V1220Z" fill="#FCFDFC"/>
<path fill-rule="evenodd" clip-rule="evenodd" d="M1078.77 1042.05L1223 891H1060.09L1003.36 931.526L1038.76 997.105L987.935 1042.05L990.229 1066.37L1078.77 1042.05Z" fill="#9ED644"/>
<path d="M996.103 1128.63L990.229 1066.37L1078.77 1042.05L996.103 1128.63Z" fill="#C3E456"/>
<path d="M711.575 967.263L749.694 940.737L717.928 891H897.177L827.292 967.263L711.575 996.553V967.263Z" fill="#71BB50"/>
<path d="M827.292 967.263L711.575 1025.84V996.553L827.292 967.263Z" fill="#C3E456"/>
</g>
<path d="M552 199.479C596.863 155.586 657.179 131 720 131C782.821 131 843.137 155.586 888 199.479M636 285C658.431 263.053 688.59 250.761 720 250.761C751.41 250.761 781.569 263.053 804 285" stroke="#71BB50" stroke-width="55" stroke-linejoin="round"/>
<path d="M360.909 890V796.896H323.597V766.8H434.301V796.896H395.757V890H360.909ZM437.751 890L486.855 766.8H515.015L563.767 890H529.095L507.975 832.8C506.801 829.632 505.745 826.699 504.807 824C503.868 821.301 502.988 818.661 502.167 816.08C501.345 813.499 500.524 810.859 499.703 808.16C498.999 805.461 498.353 802.528 497.767 799.36L503.399 799.184C502.695 802.587 501.932 805.637 501.111 808.336C500.407 811.035 499.644 813.616 498.823 816.08C498.001 818.544 497.063 821.125 496.007 823.824C495.068 826.523 494.012 829.515 492.839 832.8L471.719 890H437.751ZM461.687 869.584L472.071 844.944H529.095L538.775 869.584H461.687ZM585.13 890V766.8H615.578L660.458 839.84L636.698 839.664L682.106 766.8H711.498V890H677.882V857.088C677.882 846.528 678.117 837.024 678.586 828.576C679.173 820.128 680.111 811.739 681.402 803.408L685.274 813.792L653.77 862.544H642.154L611.354 813.792L615.226 803.408C616.517 811.269 617.397 819.365 617.866 827.696C618.453 835.909 618.746 845.707 618.746 857.088V890H585.13ZM777.637 890V796.896H740.325V766.8H851.029V796.896H812.485V890H777.637ZM913.011 890V828.576L914.243 837.2L864.435 766.8H903.507L941.523 821.36L920.931 820.832L955.251 766.8H993.267L945.571 839.136L948.211 827.168V890H913.011ZM1043.94 890V796.896H1006.63V766.8H1117.33V796.896H1078.79V890H1043.94Z" fill="white"/>
<path d="M577.243 891V987.6H619.885C626.509 987.6 632.121 986.634 636.721 984.702C641.321 982.862 644.771 980.148 647.071 976.56C649.463 973.064 650.659 968.832 650.659 963.864C650.659 958.344 649.279 953.698 646.519 949.926C643.851 946.154 639.941 943.624 634.789 942.336L634.513 944.958C638.837 944.038 642.563 942.428 645.691 940.128C648.911 937.828 651.395 934.976 653.143 931.572C654.891 928.26 655.765 924.488 655.765 920.256C655.765 915.38 654.937 911.102 653.281 907.422C651.625 903.834 649.233 900.798 646.105 898.314C642.977 895.83 639.297 893.99 635.065 892.794C630.925 891.598 626.325 891 621.265 891H577.243ZM599.323 910.596H620.437C623.013 910.596 625.175 911.01 626.923 911.838C628.763 912.666 630.189 913.862 631.201 915.426C632.213 917.082 632.719 919.06 632.719 921.36C632.719 923.476 632.167 925.27 631.063 926.742C630.051 928.214 628.579 929.318 626.647 930.054C624.715 930.882 622.415 931.296 619.747 931.296H599.323V910.596ZM599.323 948.822H616.573C618.965 948.822 620.989 949.19 622.645 949.926C624.393 950.754 625.681 951.858 626.509 953.238C627.429 954.71 627.889 956.458 627.889 958.482C627.889 961.426 626.877 963.726 624.853 965.382C622.829 967.13 619.793 968.004 615.745 968.004H599.323V948.822ZM724.927 889.62C717.567 889.62 710.851 890.862 704.779 893.346C698.707 895.83 693.417 899.326 688.909 903.834C684.401 908.342 680.905 913.632 678.421 919.704C675.937 925.776 674.695 932.446 674.695 939.714C674.695 946.982 675.937 953.652 678.421 959.724C680.905 965.796 684.401 971.086 688.909 975.594C693.417 980.102 698.707 983.598 704.779 986.082C710.851 988.566 717.521 989.808 724.789 989.808C732.057 989.808 738.727 988.566 744.799 986.082C750.871 983.598 756.161 980.102 760.669 975.594C765.177 971.086 768.627 965.796 771.019 959.724C773.503 953.652 774.745 946.982 774.745 939.714C774.745 932.538 773.503 925.868 771.019 919.704C768.627 913.632 765.177 908.342 760.669 903.834C756.161 899.326 750.871 895.83 744.799 893.346C738.727 890.862 732.103 889.62 724.927 889.62ZM724.789 911.7C728.561 911.7 732.011 912.39 735.139 913.77C738.359 915.15 741.119 917.082 743.419 919.566C745.811 922.142 747.651 925.132 748.939 928.536C750.227 931.94 750.871 935.666 750.871 939.714C750.871 943.762 750.227 947.488 748.939 950.892C747.651 954.296 745.811 957.24 743.419 959.724C741.119 962.3 738.359 964.278 735.139 965.658C732.011 967.038 728.561 967.728 724.789 967.728C721.017 967.728 717.521 967.038 714.301 965.658C711.173 964.278 708.413 962.3 706.021 959.724C703.629 957.24 701.789 954.296 700.501 950.892C699.305 947.488 698.707 943.762 698.707 939.714C698.707 935.666 699.305 931.894 700.501 928.398C701.789 924.994 703.629 922.05 706.021 919.566C708.413 917.082 711.173 915.15 714.301 913.77C717.521 912.39 721.017 911.7 724.789 911.7ZM816.593 891V966.9H787.889V987.6H869.447V966.9H840.053V891H816.593Z" fill="white" fill-opacity="0.3"/>
</g>
<defs>
<clipPath id="clip0_139_2">
<rect width="1440" height="1440" rx="16" fill="white"/>
</clipPath>
</defs>
</svg>
