<svg width="1440" height="1440" viewBox="0 0 1440 1440" fill="none" xmlns="http://www.w3.org/2000/svg">
<mask id="mask0_139_2" style="mask-type:alpha" maskUnits="userSpaceOnUse" x="20" y="20" width="1400" height="1400">
<circle cx="720" cy="720" r="700" transform="rotate(180 720 720)" fill="#A7DBE5"/>
</mask>
<g mask="url(#mask0_139_2)">
<circle cx="720" cy="720" r="700" fill="#A7DBE5"/>
<path d="M-460 720.993C-416.875 659.005 376.814 519.939 497.015 527.28C617.215 534.62 627.026 621.369 653 720.993C307.765 737.586 57.7353 736.408 -460 720.993Z" fill="#B7E0E8"/>
<path d="M771 547.738C796.883 463.783 1273.24 275.437 1345.38 285.379C1417.52 295.321 1423.41 412.811 1439 547.738C1231.8 570.211 1081.73 568.616 771 547.738Z" fill="#B7E0E8"/>
<path d="M-457 870.281C-417.633 778.803 306.885 573.58 416.609 584.413C526.334 595.246 535.29 723.263 559 870.281C243.853 894.767 15.6137 893.03 -457 870.281Z" fill="#C8E6EA"/>
<path d="M548 711.281C587.367 619.803 1311.88 414.58 1421.61 425.413C1531.33 436.246 1540.29 564.263 1564 711.281C1248.85 735.767 1020.61 734.03 548 711.281Z" fill="#C8E6EA"/>
<path d="M568 873.281C607.367 781.803 1331.88 576.58 1441.61 587.413C1551.33 598.246 1560.29 726.263 1584 873.281C1268.85 897.767 1040.61 896.03 568 873.281Z" fill="#C8E6EA"/>
<path d="M780.462 439.628L704.903 378.968L671.703 483.693L744.972 557.515L696.89 680.551L842.855 771.541L980.807 557.515L842.855 381.257L846.862 439.628L780.462 378.968V439.628Z" fill="#71BB50"/>
<path d="M1055.79 520.89L980.807 557.515L842.855 771.541L931.007 890H1136.5L1064.95 827.051L1109.6 725.188L1045.49 655.372L1048.38 617.602L1055.79 520.89Z" fill="#54AB43"/>
<path d="M696.89 771.541V726.046V680.551L496.545 890H704.903L744.972 812.744L696.89 771.541Z" fill="#54AA42"/>
<path d="M97 890H496.545L696.89 680.551L744.972 557.515L671.703 483.693L704.903 378.968L648.235 421.888V378.968L571.531 453.935L556.83 399.57L453.614 535.196L352.297 803.016L361.952 641.637L328.828 674.829L335.697 606.157L281.89 655.372L272.427 625.614L97 890Z" fill="#195E4B"/>
<path d="M453.614 535.196L370.614 496.855L361.952 641.637L352.297 803.016L453.614 535.196Z" fill="#71BB50"/>
<path d="M370.614 496.855L272.427 625.614L281.89 655.372L335.697 606.157L328.828 674.829L361.952 641.637L370.614 496.855Z" fill="#CBE1EC"/>
<path fill-rule="evenodd" clip-rule="evenodd" d="M556.83 399.57L704.903 205V313.158V378.968L648.235 421.888V378.968L571.531 453.935L556.83 399.57Z" fill="#CDE2EA"/>
<path d="M704.903 378.968L780.462 439.628V378.968L846.862 439.628L842.855 381.257L704.903 205V313.158V378.968Z" fill="#FCFDFC"/>
<path fill-rule="evenodd" clip-rule="evenodd" d="M1160.07 655.372L1342 890H1136.5L1064.95 827.051L1109.6 725.188L1045.49 655.372L1048.38 617.602L1160.07 655.372Z" fill="#9ED644"/>
<path d="M1055.79 520.89L1048.38 617.602L1160.07 655.372L1055.79 520.89Z" fill="#C3E456"/>
<path d="M696.89 771.541L744.972 812.744L704.903 890H931.007L842.855 771.541L696.89 726.046V771.541Z" fill="#71BB50"/>
<path d="M842.855 771.541L696.89 680.551V726.046L842.855 771.541Z" fill="#C3E456"/>
<path d="M709 732L1420.7 725.86C1479.28 654.61 1388.7 544.775 1358.05 549.551C1327.4 554.326 1320.93 585.339 1319.23 601.699C1294.18 592.015 1267.47 613.297 1267.47 613.297C1245.67 467.988 1046.12 568.271 1129.21 660.369C1112.31 665.486 1105.38 686.975 1105.38 686.975C1078.51 654.353 1044.28 689.749 1046.12 694.479C1017.52 635.128 955.543 648.089 955.543 694.479L709 732Z" fill="#F8F8F8"/>
<path d="M721 620L9.29529 613.86C-49.2756 542.61 41.3049 432.775 71.9525 437.551C102.6 442.326 109.068 473.339 110.773 489.699C135.822 480.015 162.533 501.297 162.533 501.297C184.327 355.988 383.877 456.271 300.788 548.369C317.687 553.486 324.625 574.975 324.625 574.975C351.486 542.354 385.719 577.749 383.877 582.479C412.481 523.128 474.457 536.089 474.457 582.479L721 620Z" fill="#F8F8F8"/>
<g opacity="0.35">
<path d="M780.913 1253.9L705.415 1303.05L672.242 1218.2L745.452 1158.39L697.408 1058.7L843.256 984.977L981.097 1158.39L843.256 1301.19L847.26 1253.9L780.913 1303.05V1253.9Z" fill="#71BB50"/>
<path d="M1056.02 1188.06L981.097 1158.39L843.256 984.977L931.337 889H1136.67L1065.17 940.002L1109.79 1022.53L1045.73 1079.1L1048.62 1109.7L1056.02 1188.06Z" fill="#54AB43"/>
<path d="M697.408 984.977V1021.84V1058.7L497.224 889H705.415L745.452 951.594L697.408 984.977Z" fill="#54AA42"/>
<path d="M98 889H497.224L697.408 1058.7L745.452 1158.39L672.242 1218.2L705.415 1303.05L648.792 1268.27V1303.05L572.15 1242.31L557.461 1286.36L454.327 1176.47L353.091 959.476L362.739 1090.23L329.641 1063.34L336.505 1118.97L282.741 1079.1L273.286 1103.21L98 889Z" fill="#195E4B"/>
<path d="M454.327 1176.47L371.394 1207.53L362.739 1090.23L353.091 959.476L454.327 1176.47Z" fill="#71BB50"/>
<path d="M371.394 1207.53L273.286 1103.21L282.741 1079.1L336.505 1118.97L329.641 1063.34L362.739 1090.23L371.394 1207.53Z" fill="#CBE1EC"/>
<path fill-rule="evenodd" clip-rule="evenodd" d="M557.461 1286.36L705.415 1444V1356.37V1303.05L648.792 1268.27V1303.05L572.15 1242.31L557.461 1286.36Z" fill="#CDE2EA"/>
<path d="M705.415 1303.05L780.913 1253.9V1303.05L847.26 1253.9L843.256 1301.19L705.415 1444V1356.37V1303.05Z" fill="#FCFDFC"/>
<path fill-rule="evenodd" clip-rule="evenodd" d="M1160.22 1079.1L1342 889H1136.67L1065.17 940.002L1109.79 1022.53L1045.73 1079.1L1048.62 1109.7L1160.22 1079.1Z" fill="#9ED644"/>
<path d="M1056.02 1188.06L1048.62 1109.7L1160.22 1079.1L1056.02 1188.06Z" fill="#C3E456"/>
<path d="M697.408 984.977L745.452 951.594L705.415 889H931.337L843.256 984.977L697.408 1021.84V984.977Z" fill="#71BB50"/>
<path d="M843.256 984.977L697.408 1058.7V1021.84L843.256 984.977Z" fill="#C3E456"/>
</g>
<path d="M610 134.241C634.968 109.73 668.537 96 703.5 96C738.463 96 772.032 109.73 797 134.241M656.75 182C669.234 169.744 686.019 162.879 703.5 162.879C720.981 162.879 737.766 169.744 750.25 182" stroke="#71BB50" stroke-width="38" stroke-linejoin="round"/>
<path d="M320.046 890V786.316H278.494V752.8H401.778V786.316H358.854V890H320.046ZM405.62 890L460.304 752.8H491.664L545.956 890H507.344L483.824 826.3C482.517 822.772 481.341 819.505 480.296 816.5C479.251 813.495 478.271 810.555 477.356 807.68C476.441 804.805 475.527 801.865 474.612 798.86C473.828 795.855 473.109 792.588 472.456 789.06L478.728 788.864C477.944 792.653 477.095 796.051 476.18 799.056C475.396 802.061 474.547 804.936 473.632 807.68C472.717 810.424 471.672 813.299 470.496 816.304C469.451 819.309 468.275 822.641 466.968 826.3L443.448 890H405.62ZM432.276 867.264L443.84 839.824H507.344L518.124 867.264H432.276ZM569.747 890V752.8H603.655L653.635 834.14L627.175 833.944L677.743 752.8H710.475V890H673.039V853.348C673.039 841.588 673.3 831.004 673.823 821.596C674.476 812.188 675.522 802.845 676.959 793.568L681.271 805.132L646.187 859.424H633.251L598.951 805.132L603.263 793.568C604.7 802.323 605.68 811.339 606.203 820.616C606.856 829.763 607.183 840.673 607.183 853.348V890H569.747ZM784.13 890V786.316H742.578V752.8H865.862V786.316H822.938V890H784.13ZM934.887 890V821.596L936.259 831.2L880.791 752.8H924.303L966.639 813.56L943.707 812.972L981.927 752.8H1024.26L971.147 833.356L974.087 820.028V890H934.887ZM1080.69 890V786.316H1039.14V752.8H1162.43V786.316H1119.5V890H1080.69Z" fill="white"/>
<path d="M556.126 890V1000.6H604.948C612.532 1000.6 618.957 999.494 624.224 997.282C629.491 995.175 633.441 992.068 636.074 987.96C638.813 983.957 640.182 979.112 640.182 973.424C640.182 967.104 638.602 961.785 635.442 957.466C632.387 953.147 627.911 950.251 622.012 948.776L621.696 951.778C626.647 950.725 630.913 948.881 634.494 946.248C638.181 943.615 641.025 940.349 643.026 936.452C645.027 932.66 646.028 928.341 646.028 923.496C646.028 917.913 645.08 913.015 643.184 908.802C641.288 904.694 638.549 901.218 634.968 898.374C631.387 895.53 627.173 893.423 622.328 892.054C617.588 890.685 612.321 890 606.528 890H556.126ZM581.406 912.436H605.58C608.529 912.436 611.005 912.91 613.006 913.858C615.113 914.806 616.745 916.175 617.904 917.966C619.063 919.862 619.642 922.127 619.642 924.76C619.642 927.183 619.01 929.237 617.746 930.922C616.587 932.607 614.902 933.871 612.69 934.714C610.478 935.662 607.845 936.136 604.79 936.136H581.406V912.436ZM581.406 956.202H601.156C603.895 956.202 606.212 956.623 608.108 957.466C610.109 958.414 611.584 959.678 612.532 961.258C613.585 962.943 614.112 964.945 614.112 967.262C614.112 970.633 612.953 973.266 610.636 975.162C608.319 977.163 604.843 978.164 600.208 978.164H581.406V956.202ZM725.213 888.42C716.787 888.42 709.097 889.842 702.145 892.686C695.193 895.53 689.137 899.533 683.975 904.694C678.814 909.855 674.811 915.912 671.967 922.864C669.123 929.816 667.701 937.453 667.701 945.774C667.701 954.095 669.123 961.732 671.967 968.684C674.811 975.636 678.814 981.693 683.975 986.854C689.137 992.015 695.193 996.018 702.145 998.862C709.097 1001.71 716.734 1003.13 725.055 1003.13C733.377 1003.13 741.013 1001.71 747.965 998.862C754.917 996.018 760.974 992.015 766.135 986.854C771.297 981.693 775.247 975.636 777.985 968.684C780.829 961.732 782.251 954.095 782.251 945.774C782.251 937.558 780.829 929.921 777.985 922.864C775.247 915.912 771.297 909.855 766.135 904.694C760.974 899.533 754.917 895.53 747.965 892.686C741.013 889.842 733.429 888.42 725.213 888.42ZM725.055 913.7C729.374 913.7 733.324 914.49 736.905 916.07C740.592 917.65 743.752 919.862 746.385 922.706C749.124 925.655 751.231 929.079 752.705 932.976C754.18 936.873 754.917 941.139 754.917 945.774C754.917 950.409 754.18 954.675 752.705 958.572C751.231 962.469 749.124 965.84 746.385 968.684C743.752 971.633 740.592 973.898 736.905 975.478C733.324 977.058 729.374 977.848 725.055 977.848C720.737 977.848 716.734 977.058 713.047 975.478C709.466 973.898 706.306 971.633 703.567 968.684C700.829 965.84 698.722 962.469 697.247 958.572C695.878 954.675 695.193 950.409 695.193 945.774C695.193 941.139 695.878 936.821 697.247 932.818C698.722 928.921 700.829 925.55 703.567 922.706C706.306 919.862 709.466 917.65 713.047 916.07C716.734 914.49 720.737 913.7 725.055 913.7ZM830.165 890V976.9H797.301V1000.6H890.679V976.9H857.025V890H830.165Z" fill="white" fill-opacity="0.3"/>
</g>
</svg>
